<svg id="visual" viewBox="0 0 960 540" width="960" height="540" xmlns="http://www.w3.org/2000/svg" xmlns:xlink="http://www.w3.org/1999/xlink" version="1.1"><rect x="0" y="0" width="960" height="540" fill="#727D73"></rect><path d="M0 380L32 379.7C64 379.3 128 378.7 192 376.5C256 374.3 320 370.7 384 362.7C448 354.7 512 342.3 576 339.5C640 336.7 704 343.3 768 343.5C832 343.7 896 337.3 928 334.2L960 331L960 541L928 541C896 541 832 541 768 541C704 541 640 541 576 541C512 541 448 541 384 541C320 541 256 541 192 541C128 541 64 541 32 541L0 541Z" fill="#aab99a"></path><path d="M0 417L32 420.3C64 423.7 128 430.3 192 432.7C256 435 320 433 384 430.5C448 428 512 425 576 421.3C640 417.7 704 413.3 768 412.5C832 411.7 896 414.3 928 415.7L960 417L960 541L928 541C896 541 832 541 768 541C704 541 640 541 576 541C512 541 448 541 384 541C320 541 256 541 192 541C128 541 64 541 32 541L0 541Z" fill="#bbcbb5"></path><path d="M0 470L32 471.8C64 473.7 128 477.3 192 480.7C256 484 320 487 384 487.3C448 487.7 512 485.3 576 482.3C640 479.3 704 475.7 768 471.7C832 467.7 896 463.3 928 461.2L960 459L960 541L928 541C896 541 832 541 768 541C704 541 640 541 576 541C512 541 448 541 384 541C320 541 256 541 192 541C128 541 64 541 32 541L0 541Z" fill="#d0ddd0"></path></svg>

